<svg width="22" height="22" viewBox="0 0 22 22" fill="none" xmlns="http://www.w3.org/2000/svg">
<path d="M11 0.85C8.99252 0.85 7.03012 1.44529 5.36097 2.56058C3.69181 3.67588 2.39086 5.26109 1.62263 7.11576C0.854398 8.97043 0.653394 11.0113 1.04503 12.9802C1.43667 14.9491 2.40337 16.7576 3.82287 18.1771C5.24237 19.5966 7.05093 20.5633 9.01984 20.955C10.9887 21.3466 13.0296 21.1456 14.8842 20.3774C16.7389 19.6091 18.3241 18.3082 19.4394 16.639C20.5547 14.9699 21.15 13.0075 21.15 11C21.15 8.30805 20.0806 5.72636 18.1771 3.82287C16.2736 1.91937 13.6919 0.85 11 0.85ZM11 19.5167C9.31557 19.5167 7.66896 19.0172 6.2684 18.0814C4.86784 17.1455 3.77624 15.8154 3.13163 14.2592C2.48702 12.703 2.31837 10.9906 2.64698 9.33848C2.9756 7.68641 3.78673 6.16888 4.97781 4.97781C6.16889 3.78673 7.68641 2.9756 9.33848 2.64698C10.9906 2.31836 12.703 2.48702 14.2592 3.13163C15.8154 3.77623 17.1455 4.86783 18.0814 6.26839C19.0172 7.66895 19.5167 9.31556 19.5167 11C19.5167 13.2588 18.6194 15.425 17.0222 17.0222C15.425 18.6194 13.2588 19.5167 11 19.5167Z" fill="#919191" stroke="#919191" stroke-width="0.3"/>
<path d="M10.3833 5.66667C10.3833 5.47659 10.3078 5.29431 10.1734 5.15991C10.039 5.02551 9.85674 4.95 9.66667 4.95C9.47659 4.95 9.29431 5.02551 9.15991 5.15991C9.02551 5.29431 8.95 5.47659 8.95 5.66667V12.3333C8.95 12.5234 9.02551 12.7057 9.15991 12.8401C9.29431 12.9745 9.47659 13.05 9.66667 13.05H16.3333C16.5234 13.05 16.7057 12.9745 16.8401 12.8401C16.9745 12.7057 17.05 12.5234 17.05 12.3333C17.05 12.1433 16.9745 11.961 16.8401 11.8266C16.7057 11.6922 16.5234 11.6167 16.3333 11.6167H10.3833V5.66667Z" fill="#919191" stroke="#919191" stroke-width="0.1"/>
</svg>
