<svg xmlns="http://www.w3.org/2000/svg" xmlns:xlink="http://www.w3.org/1999/xlink" width="126" height="126" viewBox="0 0 126 126">
  <defs>
    <clipPath id="clip-Coaching">
      <rect width="126" height="126"/>
    </clipPath>
  </defs>
  <g id="Coaching" clip-path="url(#clip-Coaching)">
    <g id="noun-productivity-3757270" transform="translate(-92.555 -52.325)">
      <path id="Path_54" data-name="Path 54" d="M262.617,192.543a3.859,3.859,0,0,0,.424,3.013l3.075,5.089a4.117,4.117,0,0,0,5.46,1.429l1.028-.585a18.651,18.651,0,0,0,3.967,2.215v1.007a4,4,0,0,0,4.044,3.946h6.149a4,4,0,0,0,4.029-3.952V203.7a14.979,14.979,0,0,0,3.873-2.247l1.124.621h0a4.109,4.109,0,0,0,5.457-1.433l3.075-5.089a3.842,3.842,0,0,0,.424-3.013,3.919,3.919,0,0,0-1.921-2.442l-.93-.518a16.648,16.648,0,0,0,0-4.241l.944-.52h0a3.926,3.926,0,0,0,1.922-2.442,3.85,3.85,0,0,0-.424-3.013l-3.075-5.089a4.115,4.115,0,0,0-5.46-1.429l-1.028.585h0a18.655,18.655,0,0,0-3.967-2.216V170.2a4,4,0,0,0-4.041-3.952h-6.149a4,4,0,0,0-4.029,3.952v1.01a14.98,14.98,0,0,0-3.873,2.247l-1.124-.621h0a4.108,4.108,0,0,0-5.457,1.433l-3.075,5.089a3.851,3.851,0,0,0-.424,3.013,3.931,3.931,0,0,0,1.923,2.442l.944.52a16.648,16.648,0,0,0,0,4.241l-.944.52a3.938,3.938,0,0,0-1.938,2.447Zm6.972-5.089a12.8,12.8,0,0,1,.13-1.8,3.914,3.914,0,0,0-2.019-3.942l-.848-.462,2.8-4.631,1,.551h0a4.173,4.173,0,0,0,4.453-.324,14.324,14.324,0,0,1,3.121-1.735,3.993,3.993,0,0,0,2.583-3.685v-.939h5.742v.939a3.994,3.994,0,0,0,2.58,3.685,14.319,14.319,0,0,1,3.133,1.737,4.179,4.179,0,0,0,4.464.325l1-.549,2.8,4.631-.848.462h0a3.914,3.914,0,0,0-2.019,3.942,12.482,12.482,0,0,1,0,3.592,3.914,3.914,0,0,0,2.019,3.942l.848.462-2.8,4.631-1-.551a4.171,4.171,0,0,0-4.453.325,14.318,14.318,0,0,1-3.121,1.734,4,4,0,0,0-2.582,3.685v.935h-5.749v-.939a3.995,3.995,0,0,0-2.58-3.685,14.331,14.331,0,0,1-3.121-1.737,4.18,4.18,0,0,0-4.464-.325l-1,.549-2.8-4.631.848-.462h0a3.911,3.911,0,0,0,2.018-3.942,13.043,13.043,0,0,1-.135-1.792Z" transform="translate(-128.748 -79.555)" fill="#fff"/>
      <path id="Path_55" data-name="Path 55" d="M323.482,235.713a8.481,8.481,0,1,0-6-2.484A8.485,8.485,0,0,0,323.482,235.713Zm0-12.722a4.24,4.24,0,1,1-3,1.242A4.241,4.241,0,0,1,323.482,222.991Z" transform="translate(-168.539 -119.333)" fill="#fff"/>
      <path id="Path_56" data-name="Path 56" d="M218.858,151.344a31.73,31.73,0,0,0,9.754,26.012A23.465,23.465,0,0,1,235.58,192.5a2.121,2.121,0,0,0-2.013,2.1v10.6a4.24,4.24,0,0,0,4.241,4.241h4.508a8.482,8.482,0,0,0,16.429,0h4.508a4.24,4.24,0,0,0,4.241-4.241V194.6a2.121,2.121,0,0,0-2.016-2.1,24.019,24.019,0,0,1,7.105-15.288,31.791,31.791,0,1,0-53.725-25.869ZM256.892,205.2a2.121,2.121,0,0,0-2.12,2.12,4.241,4.241,0,1,1-8.482,0,2.12,2.12,0,0,0-2.12-2.12h-6.361v-8.482h25.445V205.2Zm-7.676-78.424a27.565,27.565,0,0,1,20.435,47.383,28.311,28.311,0,0,0-8.441,18.318H239.855a27.8,27.8,0,0,0-8.314-18.2,27.565,27.565,0,0,1,17.675-47.5Z" transform="translate(-95.588 -46.414)" fill="#fff"/>
      <path id="Path_57" data-name="Path 57" d="M341.25,61.25h4.241v8.482H341.25Z" transform="translate(-188.428)" fill="#fff"/>
      <path id="Path_58" data-name="Path 58" d="M455.18,117.448l6-6,3,3-6,6Z" transform="translate(-274.749 -38.035)" fill="#fff"/>
      <path id="Path_59" data-name="Path 59" d="M207.7,114.444l3-3,6,6-3,3Z" transform="translate(-87.242 -38.031)" fill="#fff"/>
      <path id="Path_60" data-name="Path 60" d="M92.555,357.015l31.806-14.807,1.79,3.844L94.345,360.859Z" transform="translate(0 -212.873)" fill="#fff"/>
      <path id="Path_61" data-name="Path 61" d="M526.237,168.883l3.8-11.378a2.121,2.121,0,0,0-1.342-2.683l-11.376-3.8-1.342,4.029,6.325,2.11-18.5,8.611,1.79,3.844,18.859-8.779-2.24,6.7Z" transform="translate(-311.589 -68.019)" fill="#fff"/>
    </g>
  </g>
</svg>
