<svg xmlns="http://www.w3.org/2000/svg" width="69.204" height="54.648" viewBox="0 0 69.204 54.648">
  <path id="Path_1590" data-name="Path 1590" d="M19.973,57.348c7.636,0,13.6-6.443,12.17-16.7-3.58-.716-10.977-2.864-10.977-9.545,0-6.92,3.818-13.6,14.557-20.523A62.123,62.123,0,0,0,29.757,2.7C16.155,9.382,4.7,23.461,4.7,39.211,4.7,49.473,12.336,57.348,19.973,57.348Zm38.182,0c7.636,0,13.6-6.682,12.17-16.466-3.58-.955-10.977-2.864-10.977-9.784S63.166,17.5,73.9,10.575A62.124,62.124,0,0,0,67.938,2.7c-13.6,6.682-25.057,20.761-25.057,36.511C42.882,49.473,50.757,57.348,58.154,57.348Z" transform="translate(-4.7 -2.7)" fill="#0b82b4"/>
</svg>
