<svg xmlns="http://www.w3.org/2000/svg" xmlns:xlink="http://www.w3.org/1999/xlink" width="126" height="126" viewBox="0 0 126 126">
  <defs>
    <clipPath id="clip-Consulting">
      <rect width="126" height="126"/>
    </clipPath>
  </defs>
  <g id="Consulting" clip-path="url(#clip-Consulting)">
    <g id="noun-consult-3468965" transform="translate(-87.5 -62.676)">
      <path id="Path_62" data-name="Path 62" d="M218.789,109.819a22.522,22.522,0,0,0-11.9,6.343l-3.937,3.937a6.32,6.32,0,0,0-6.451-.75l-10.92,4.967a4.2,4.2,0,0,0-1.233,6.8l5.282,5.284h0a2.1,2.1,0,0,0,1.484.616,2.046,2.046,0,0,0,.664-.108l2.31-.773-1.43,2.882a6.3,6.3,0,0,0-4.511,1.838c-1.729,1.731-6.034,8.824-2.969,11.886a3.956,3.956,0,0,0,2.908,1.074,16.107,16.107,0,0,0,8.972-4.044,6.292,6.292,0,0,0,1.837-4.513l2.884-1.442-.773,2.311h0a2.1,2.1,0,0,0,.508,2.149l5.277,5.293a4.2,4.2,0,0,0,2.969,1.231,4.28,4.28,0,0,0,.75-.067,4.2,4.2,0,0,0,3.077-2.4l4.964-10.925a6.336,6.336,0,0,0-.754-6.445l3.936-3.939a22.544,22.544,0,0,0,6.339-11.906c.689-3.782.256-6.393-1.321-7.969s-4.178-2.018-7.961-1.331ZM191.681,132.51l-4.361-4.366,10.92-4.967a2.082,2.082,0,0,1,1.651-.017l-7.294,7.3a2.067,2.067,0,0,0-.532,1.925Zm2.4,14.287a13.022,13.022,0,0,1-5.814,2.845,13.025,13.025,0,0,1,2.844-5.815,2.1,2.1,0,1,1,2.971,2.97Zm2.969-5.944-.408-.408.989-1.981,1.819,1.82-1.98.99Zm17.674-1.189-4.967,10.925-4.364-4.366.128-.388h0a2.051,2.051,0,0,0,.439.084,2.1,2.1,0,0,0,1.485-.615l7.291-7.294h0a2.1,2.1,0,0,1-.013,1.656Zm9.213-21.306h0a18.342,18.342,0,0,1-5.183,9.687l-12.8,12.816-2.972-2.97,8.91-8.914-2.969-2.97-8.91,8.914-2.969-2.973,12.81-12.806a18.331,18.331,0,0,1,9.681-5.178c2.73-.5,3.954-.137,4.246.158s.643,1.508.156,4.238Z" transform="translate(-72.669 -30.02)" fill="#fff"/>
      <path id="Path_63" data-name="Path 63" d="M312.265,140.438l-4.454-1.486-1.329,3.992,3.458,1.154,1.153,3.46,3.99-1.33-1.485-4.456h0a2.1,2.1,0,0,0-1.334-1.334Z" transform="translate(-166.426 -52.396)" fill="#fff"/>
      <path id="Path_64" data-name="Path 64" d="M179.9,122.525V80.505A10.514,10.514,0,0,0,169.4,70H98A10.514,10.514,0,0,0,87.5,80.505v42.02A10.514,10.514,0,0,0,98,133.03h9.418l9.87,13.826a2.1,2.1,0,0,0,3.812-1.22V133.03h48.3a10.514,10.514,0,0,0,10.5-10.505Zm-60.9,6.3a2.1,2.1,0,0,0-2.1,2.1v8.15l-6.691-9.37a2.1,2.1,0,0,0-1.709-.881H98a6.3,6.3,0,0,1-6.3-6.3V80.505A6.3,6.3,0,0,1,98,74.2h71.4a6.3,6.3,0,0,1,6.3,6.3v42.02a6.3,6.3,0,0,1-6.3,6.3Z" fill="#fff"/>
      <path id="Path_65" data-name="Path 65" d="M322.7,236.25H303.8v4.2h18.9a6.3,6.3,0,0,1,6.3,6.3v37.818a6.3,6.3,0,0,1-6.3,6.3H303.8a2.1,2.1,0,0,0-1.612.756L295.4,299.78v-6.8a2.1,2.1,0,0,0-2.1-2.1H255.5a6.3,6.3,0,0,1-6.3-6.3v-21.01H245v21.01a10.514,10.514,0,0,0,10.5,10.505h35.7v10.505a2.1,2.1,0,0,0,3.712,1.345l9.87-11.85H322.7a10.514,10.514,0,0,0,10.5-10.505V246.755a10.514,10.514,0,0,0-10.5-10.505Z" transform="translate(-119.701 -126.331)" fill="#fff"/>
      <path id="Path_66" data-name="Path 66" d="M306.25,350h58.8v4.2h-58.8Z" transform="translate(-166.25 -212.768)" fill="#fff"/>
      <path id="Path_67" data-name="Path 67" d="M306.25,402.5h58.8v4.2h-58.8Z" transform="translate(-166.25 -252.662)" fill="#fff"/>
      <path id="Path_68" data-name="Path 68" d="M498.75,297.5h12.6v4.2h-12.6Z" transform="translate(-312.55 -172.874)" fill="#fff"/>
    </g>
  </g>
</svg>
