<svg width="20" height="20" viewBox="0 0 20 20" fill="none" xmlns="http://www.w3.org/2000/svg">
<path d="M10 0C8.02219 0 6.08879 0.58649 4.4443 1.6853C2.79981 2.78412 1.51809 4.3459 0.761209 6.17316C0.00433284 8.00043 -0.1937 10.0111 0.192152 11.9509C0.578004 13.8907 1.53041 15.6725 2.92894 17.0711C4.32746 18.4696 6.10929 19.422 8.0491 19.8078C9.98891 20.1937 11.9996 19.9957 13.8268 19.2388C15.6541 18.4819 17.2159 17.2002 18.3147 15.5557C19.4135 13.9112 20 11.9778 20 10C20 7.34783 18.9464 4.8043 17.0711 2.92893C15.1957 1.05357 12.6522 0 10 0ZM10 18.2609C8.36616 18.2609 6.769 17.7764 5.41051 16.8687C4.05202 15.9609 2.9932 14.6708 2.36796 13.1613C1.74271 11.6518 1.57912 9.99084 1.89786 8.38838C2.21661 6.78593 3.00338 5.31399 4.15869 4.15868C5.31399 3.00338 6.78594 2.21661 8.38839 1.89786C9.99084 1.57911 11.6518 1.74271 13.1613 2.36795C14.6708 2.9932 15.9609 4.05201 16.8687 5.41051C17.7764 6.769 18.2609 8.36615 18.2609 10C18.2609 12.1909 17.3905 14.2921 15.8413 15.8413C14.2921 17.3905 12.1909 18.2609 10 18.2609Z" fill="#919191"/>
<path d="M10.8697 9.44343V6.74343C11.2909 6.84773 11.6795 7.05545 12.0002 7.34778C12.1674 7.50691 12.3909 7.5931 12.6217 7.58739C12.8524 7.58168 13.0715 7.48455 13.2306 7.31735C13.3897 7.15014 13.4759 6.92657 13.4702 6.69582C13.4645 6.46507 13.3674 6.24604 13.2002 6.08691C12.5503 5.49237 11.7398 5.10224 10.8697 4.96517V3.86517C10.8697 3.63455 10.7781 3.41337 10.615 3.2503C10.452 3.08722 10.2308 2.99561 10.0002 2.99561C9.76953 2.99561 9.54835 3.08722 9.38528 3.2503C9.2222 3.41337 9.13059 3.63455 9.13059 3.86517V4.99126C8.73062 5.06538 8.34477 5.20182 7.98711 5.39561C7.57959 5.58506 7.22639 5.87417 6.96016 6.23623C6.69392 6.59829 6.52323 7.02161 6.46386 7.46708C6.4045 7.91255 6.45837 8.36579 6.62049 8.78494C6.78262 9.20408 7.04778 9.5756 7.39146 9.86517C7.88615 10.3235 8.482 10.6587 9.13059 10.8434V13.5521C8.71061 13.4493 8.32239 13.2448 8.00016 12.9565C7.83153 12.8089 7.61245 12.7321 7.3886 12.7422C7.16476 12.7522 6.95342 12.8483 6.79866 13.0103C6.64391 13.1723 6.55768 13.3879 6.55796 13.6119C6.55823 13.836 6.645 14.0513 6.80016 14.213C7.44939 14.8077 8.26038 15.1965 9.13059 15.3304V16.2347C9.13059 16.4654 9.2222 16.6865 9.38528 16.8496C9.54835 17.0127 9.76953 17.1043 10.0002 17.1043C10.2308 17.1043 10.452 17.0127 10.615 16.8496C10.7781 16.6865 10.8697 16.4654 10.8697 16.2347V15.3173C11.2806 15.2405 11.6778 15.1028 12.048 14.9086C12.454 14.716 12.8049 14.4242 13.0683 14.0601C13.3317 13.696 13.4991 13.2713 13.555 12.8255C13.6109 12.3796 13.5535 11.9268 13.3881 11.5089C13.2227 11.0911 12.9547 10.7216 12.6089 10.4347C12.1141 9.97353 11.5186 9.6341 10.8697 9.44343ZM8.59581 8.6043C8.46354 8.49349 8.35806 8.35418 8.28728 8.19681C8.2165 8.03944 8.18226 7.86809 8.18711 7.69561C8.22715 7.52746 8.30464 7.37054 8.4138 7.23653C8.52296 7.10252 8.66098 6.9949 8.81755 6.92169C8.91761 6.86857 9.02241 6.82491 9.13059 6.79126V8.96517C8.92997 8.87236 8.74396 8.75079 8.57842 8.6043H8.59581ZM11.8306 12.6086C11.7915 12.7766 11.7143 12.9334 11.605 13.0668C11.4957 13.2003 11.3572 13.3068 11.2002 13.3782C11.0894 13.4389 10.9729 13.4884 10.8523 13.526V11.3043C11.06 11.403 11.252 11.532 11.4219 11.6869C11.5554 11.7995 11.6616 11.941 11.7324 12.1007C11.8032 12.2604 11.8368 12.4341 11.8306 12.6086Z" fill="#919191"/>
</svg>
