<?xml version="1.0" encoding="UTF-8"?>
<svg xmlns="http://www.w3.org/2000/svg" xmlns:xlink="http://www.w3.org/1999/xlink" width="30px" height="50px" viewBox="0 0 30 31" version="1.1">
<g id="surface1">
<path style=" stroke:none;fill-rule:nonzero;fill:rgb(33.333333%,33.333333%,33.333333%);fill-opacity:1;" d="M 22.941406 14.664062 C 22.941406 10.410156 19.398438 6.960938 15.027344 6.960938 C 10.65625 6.960938 7.113281 10.410156 7.113281 14.664062 C 7.109375 15.285156 7.191406 15.902344 7.355469 16.5 C 7.570312 17.375 7.949219 18.203125 8.472656 18.945312 C 8.578125 19.148438 8.71875 19.351562 8.855469 19.589844 C 9.03125 19.859375 9.167969 20.132812 9.347656 20.371094 C 10.042969 21.488281 10.460938 22.132812 10.460938 23.457031 L 10.460938 26.648438 C 10.457031 27.445312 11.050781 28.121094 11.855469 28.246094 C 12.207031 29.972656 13.25 31.0625 15.027344 31.0625 C 16.808594 31.0625 17.886719 29.976562 18.203125 28.246094 C 19 28.113281 19.589844 27.441406 19.597656 26.648438 L 19.597656 23.460938 C 19.597656 22.136719 20.015625 21.457031 20.710938 20.371094 C 20.851562 20.132812 21.023438 19.863281 21.203125 19.589844 C 21.339844 19.351562 21.480469 19.148438 21.585938 18.945312 C 22.109375 18.207031 22.488281 17.378906 22.699219 16.5 C 22.867188 15.902344 22.949219 15.289062 22.945312 14.667969 Z M 18.234375 24.273438 L 11.886719 24.273438 L 11.886719 23.492188 C 11.894531 23.34375 11.882812 23.195312 11.855469 23.050781 L 18.234375 23.050781 C 18.234375 23.1875 18.199219 23.324219 18.199219 23.492188 L 18.199219 24.273438 Z M 17.921875 26.957031 L 12.132812 26.957031 C 12.058594 26.957031 11.988281 26.929688 11.933594 26.878906 C 11.882812 26.824219 11.851562 26.757812 11.855469 26.683594 L 11.855469 25.632812 L 18.199219 25.632812 L 18.199219 26.679688 C 18.234375 26.816406 18.09375 26.953125 17.917969 26.953125 Z M 15.027344 29.738281 C 14.644531 29.738281 13.667969 29.738281 13.285156 28.3125 L 16.804688 28.3125 C 16.421875 29.738281 15.410156 29.738281 15.027344 29.738281 Z M 21.335938 16.226562 C 21.148438 16.957031 20.832031 17.644531 20.394531 18.265625 C 20.257812 18.46875 20.152344 18.671875 20.011719 18.910156 C 19.839844 19.183594 19.699219 19.453125 19.558594 19.65625 C 19.136719 20.285156 18.785156 20.957031 18.515625 21.660156 L 11.609375 21.660156 C 11.351562 20.949219 11 20.277344 10.5625 19.65625 C 10.425781 19.417969 10.25 19.179688 10.109375 18.910156 C 9.972656 18.671875 9.832031 18.433594 9.726562 18.265625 C 9.289062 17.632812 8.972656 16.933594 8.785156 16.195312 C 8.648438 15.695312 8.578125 15.183594 8.578125 14.667969 C 8.578125 11.160156 11.496094 8.316406 15.097656 8.316406 C 18.699219 8.316406 21.617188 11.160156 21.617188 14.667969 C 21.554688 15.191406 21.460938 15.714844 21.339844 16.226562 Z M 21.335938 16.226562 "/>
<path style=" stroke:none;fill-rule:nonzero;fill:rgb(33.333333%,33.333333%,33.333333%);fill-opacity:1;" d="M 29.390625 13.988281 L 26.496094 13.988281 C 26.113281 13.988281 25.800781 14.289062 25.800781 14.664062 C 25.800781 15.039062 26.113281 15.34375 26.496094 15.34375 L 29.390625 15.34375 C 29.773438 15.34375 30.085938 15.039062 30.085938 14.664062 C 30.085938 14.289062 29.773438 13.988281 29.390625 13.988281 Z M 29.390625 13.988281 "/>
<path style=" stroke:none;fill-rule:nonzero;fill:rgb(33.333333%,33.333333%,33.333333%);fill-opacity:1;" d="M 23.113281 7.46875 C 23.300781 7.464844 23.476562 7.394531 23.605469 7.265625 L 25.660156 5.261719 C 25.929688 5 25.929688 4.574219 25.660156 4.3125 C 25.390625 4.046875 24.957031 4.046875 24.6875 4.3125 L 22.628906 6.3125 C 22.496094 6.4375 22.417969 6.609375 22.417969 6.789062 C 22.417969 6.96875 22.496094 7.140625 22.628906 7.265625 C 22.757812 7.390625 22.929688 7.464844 23.113281 7.46875 Z M 23.113281 7.46875 "/>
<path style=" stroke:none;fill-rule:nonzero;fill:rgb(33.333333%,33.333333%,33.333333%);fill-opacity:1;" d="M 15.027344 4.175781 C 15.410156 4.175781 15.722656 3.871094 15.722656 3.496094 L 15.722656 0.679688 C 15.722656 0.304688 15.410156 0 15.027344 0 C 14.640625 0 14.328125 0.304688 14.328125 0.679688 L 14.328125 3.496094 C 14.328125 3.871094 14.640625 4.175781 15.027344 4.175781 Z M 15.027344 4.175781 "/>
<path style=" stroke:none;fill-rule:nonzero;fill:rgb(33.333333%,33.333333%,33.333333%);fill-opacity:1;" d="M 6.449219 7.265625 C 6.578125 7.394531 6.753906 7.46875 6.9375 7.46875 C 7.121094 7.46875 7.296875 7.394531 7.425781 7.265625 C 7.558594 7.140625 7.632812 6.96875 7.632812 6.789062 C 7.632812 6.609375 7.558594 6.4375 7.425781 6.316406 L 5.367188 4.3125 C 5.097656 4.050781 4.660156 4.050781 4.390625 4.3125 C 4.121094 4.574219 4.121094 5 4.390625 5.261719 Z M 6.449219 7.265625 "/>
<path style=" stroke:none;fill-rule:nonzero;fill:rgb(33.333333%,33.333333%,33.333333%);fill-opacity:1;" d="M 3.589844 13.988281 L 0.699219 13.988281 C 0.3125 13.988281 0 14.289062 0 14.664062 C 0 15.039062 0.3125 15.34375 0.699219 15.34375 L 3.589844 15.34375 C 3.976562 15.34375 4.289062 15.039062 4.289062 14.664062 C 4.289062 14.289062 3.976562 13.988281 3.589844 13.988281 Z M 3.589844 13.988281 "/>
<path style=" stroke:none;fill-rule:nonzero;fill:rgb(33.333333%,33.333333%,33.333333%);fill-opacity:1;" d="M 6.449219 22.066406 L 4.394531 24.070312 C 4.257812 24.191406 4.183594 24.363281 4.183594 24.542969 C 4.183594 24.722656 4.257812 24.894531 4.394531 25.019531 C 4.519531 25.148438 4.695312 25.222656 4.878906 25.222656 C 5.066406 25.222656 5.242188 25.148438 5.367188 25.019531 L 7.425781 23.015625 C 7.695312 22.753906 7.695312 22.328125 7.425781 22.066406 C 7.15625 21.804688 6.71875 21.804688 6.449219 22.066406 Z M 6.449219 22.066406 "/>
<path style=" stroke:none;fill-rule:nonzero;fill:rgb(33.333333%,33.333333%,33.333333%);fill-opacity:1;" d="M 23.601562 22.066406 C 23.332031 21.804688 22.898438 21.804688 22.628906 22.066406 C 22.359375 22.328125 22.359375 22.753906 22.628906 23.015625 L 24.683594 25.019531 C 24.8125 25.148438 24.988281 25.222656 25.171875 25.222656 C 25.355469 25.222656 25.535156 25.148438 25.660156 25.019531 C 25.792969 24.894531 25.871094 24.722656 25.871094 24.542969 C 25.871094 24.363281 25.792969 24.191406 25.660156 24.070312 Z M 23.601562 22.066406 "/>
</g>
</svg>
