<svg xmlns="http://www.w3.org/2000/svg" width="21.428" height="21.427" viewBox="0 0 21.428 21.427">
  <g id="Icon_feather-instagram" data-name="Icon feather-instagram" transform="translate(1.5 1.5)">
    <path id="Path_120" data-name="Path 120" d="M7.607,3h9.214a4.607,4.607,0,0,1,4.607,4.607v9.214a4.607,4.607,0,0,1-4.607,4.607H7.607A4.607,4.607,0,0,1,3,16.821V7.607A4.607,4.607,0,0,1,7.607,3Z" transform="translate(-3 -3)" fill="none" stroke="#555" stroke-linecap="round" stroke-linejoin="round" stroke-width="3"/>
    <path id="Path_121" data-name="Path 121" d="M19.4,15.08a3.686,3.686,0,1,1-3.105-3.105A3.686,3.686,0,0,1,19.4,15.08Z" transform="translate(-6.497 -6.447)" fill="none" stroke="#555" stroke-linecap="round" stroke-linejoin="round" stroke-width="3"/>
    <path id="Path_122" data-name="Path 122" d="M26.25,9.75h0" transform="translate(-11.969 -5.604)" fill="none" stroke="#555" stroke-linecap="round" stroke-linejoin="round" stroke-width="3"/>
  </g>
</svg>
