<?xml version="1.0" encoding="UTF-8"?>
<svg xmlns="http://www.w3.org/2000/svg" xmlns:xlink="http://www.w3.org/1999/xlink" width="30px" height="50px" viewBox="0 0 30 28" version="1.1">
<g id="surface1">
<path style=" stroke:none;fill-rule:nonzero;fill:rgb(33.333333%,33.333333%,33.333333%);fill-opacity:1;" d="M 25.332031 15.898438 C 27.199219 15.902344 28.867188 14.773438 29.5 13.078125 C 30.136719 11.378906 29.605469 9.476562 28.167969 8.324219 C 26.734375 7.171875 24.703125 7.015625 23.097656 7.933594 C 21.496094 8.855469 20.65625 10.648438 21.007812 12.425781 L 18.84375 13.105469 C 18.203125 11.792969 16.914062 10.886719 15.425781 10.699219 L 15.425781 8.492188 C 17.730469 8.207031 19.410156 6.234375 19.261719 3.988281 C 19.113281 1.746094 17.191406 -0.00390625 14.867188 -0.00390625 C 12.542969 -0.00390625 10.621094 1.746094 10.472656 3.988281 C 10.324219 6.234375 12.003906 8.207031 14.308594 8.492188 L 14.308594 10.699219 C 12.820312 10.886719 11.535156 11.792969 10.890625 13.105469 L 8.726562 12.425781 C 9.167969 10.207031 7.753906 8.039062 5.496094 7.476562 C 3.238281 6.910156 0.914062 8.140625 0.191406 10.285156 C -0.535156 12.433594 0.585938 14.753906 2.75 15.59375 C 4.914062 16.429688 7.378906 15.492188 8.378906 13.453125 L 10.542969 14.132812 C 10.257812 15.5625 10.753906 17.035156 11.851562 18.027344 L 10.511719 19.8125 C 8.460938 18.707031 5.878906 19.339844 4.613281 21.253906 C 3.347656 23.164062 3.832031 25.703125 5.726562 27.046875 C 7.617188 28.390625 10.261719 28.078125 11.765625 26.335938 C 13.269531 24.59375 13.113281 22.015625 11.414062 20.453125 L 12.753906 18.667969 C 14.070312 19.367188 15.664062 19.367188 16.980469 18.667969 L 18.320312 20.449219 C 16.65625 21.988281 16.511719 24.511719 17.988281 26.214844 C 19.464844 27.921875 22.054688 28.226562 23.90625 26.910156 C 25.761719 25.589844 26.238281 23.105469 25 21.230469 C 23.761719 19.355469 21.234375 18.734375 19.222656 19.808594 L 17.882812 18.027344 C 18.984375 17.035156 19.476562 15.5625 19.195312 14.132812 L 21.359375 13.453125 C 22.082031 14.945312 23.632812 15.894531 25.332031 15.898438 Z M 4.402344 14.816406 C 2.984375 14.816406 1.726562 13.933594 1.285156 12.628906 C 0.84375 11.320312 1.316406 9.890625 2.460938 9.074219 C 3.601562 8.261719 5.15625 8.25 6.308594 9.046875 C 7.464844 9.84375 7.960938 11.269531 7.539062 12.578125 C 7.535156 12.59375 7.527344 12.601562 7.523438 12.617188 C 7.519531 12.628906 7.523438 12.628906 7.519531 12.632812 C 7.074219 13.933594 5.820312 14.8125 4.402344 14.816406 Z M 11.679688 23.550781 C 11.679688 25.308594 10.207031 26.730469 8.394531 26.730469 C 6.582031 26.730469 5.109375 25.308594 5.109375 23.550781 C 5.109375 21.792969 6.582031 20.367188 8.394531 20.367188 C 10.207031 20.371094 11.675781 21.792969 11.679688 23.550781 Z M 24.621094 23.550781 C 24.621094 25.308594 23.148438 26.730469 21.335938 26.730469 C 19.519531 26.730469 18.050781 25.308594 18.050781 23.550781 C 18.050781 21.792969 19.519531 20.367188 21.335938 20.367188 C 23.148438 20.371094 24.617188 21.792969 24.621094 23.550781 Z M 11.585938 4.265625 C 11.585938 2.507812 13.054688 1.085938 14.871094 1.085938 C 16.683594 1.085938 18.15625 2.507812 18.15625 4.265625 C 18.15625 6.023438 16.683594 7.449219 14.871094 7.449219 C 13.054688 7.449219 11.582031 6.023438 11.582031 4.265625 Z M 14.871094 18.113281 C 13.820312 18.113281 12.835938 17.628906 12.21875 16.808594 C 11.597656 15.988281 11.421875 14.933594 11.738281 13.964844 C 11.738281 13.957031 11.746094 13.953125 11.75 13.945312 C 11.75 13.9375 11.75 13.933594 11.753906 13.925781 C 12.28125 12.382812 13.925781 11.476562 15.566406 11.820312 C 17.207031 12.167969 18.316406 13.652344 18.136719 15.269531 C 17.957031 16.886719 16.546875 18.113281 14.871094 18.113281 Z M 25.335938 8.453125 C 27.148438 8.453125 28.621094 9.878906 28.621094 11.636719 C 28.621094 13.390625 27.148438 14.816406 25.335938 14.816406 C 23.519531 14.816406 22.050781 13.390625 22.050781 11.636719 C 22.050781 9.878906 23.519531 8.453125 25.332031 8.449219 Z M 25.335938 8.453125 "/>
</g>
</svg>
