<?xml version="1.0" encoding="UTF-8"?>
<svg xmlns="http://www.w3.org/2000/svg" xmlns:xlink="http://www.w3.org/1999/xlink" width="30px" height="50px" viewBox="0 0 30 34" version="1.1">
<g id="surface1">
<path style=" stroke:none;fill-rule:nonzero;fill:rgb(33.333333%,33.333333%,33.333333%);fill-opacity:1;" d="M 23.855469 29.550781 C 23.886719 29.523438 23.925781 29.496094 23.96875 29.464844 C 24.652344 29.019531 25.03125 28.230469 24.953125 27.417969 C 24.953125 26.019531 23.679688 25.378906 22.753906 24.910156 C 22.324219 24.691406 21.675781 24.363281 21.675781 24.15625 L 21.675781 21.828125 L 21.359375 21.636719 C 19.855469 20.558594 18.992188 18.8125 19.050781 16.972656 C 19.050781 14.390625 19.976562 13.664062 20.046875 13.613281 L 20.363281 13.433594 L 20.363281 11.09375 L 18.867188 11.09375 L 18.394531 9.683594 L 18.394531 9.289062 C 20.132812 7.90625 20.804688 5.574219 20.066406 3.484375 C 19.328125 1.390625 17.34375 -0.0117188 15.113281 -0.0117188 C 12.886719 -0.0117188 10.898438 1.390625 10.160156 3.484375 C 9.421875 5.574219 10.09375 7.90625 11.832031 9.289062 L 11.832031 9.683594 L 11.359375 11.09375 L 9.863281 11.09375 L 9.863281 13.054688 L 9.882812 13.414062 L 10.175781 13.609375 C 10.183594 13.617188 11.175781 14.304688 11.175781 16.972656 C 11.238281 18.8125 10.371094 20.5625 8.867188 21.636719 L 8.550781 21.828125 L 8.550781 24.152344 C 8.550781 24.371094 7.921875 24.6875 7.464844 24.917969 C 6.539062 25.386719 5.269531 26.023438 5.269531 27.417969 C 5.191406 28.230469 5.570312 29.015625 6.257812 29.464844 C 6.296875 29.496094 6.335938 29.519531 6.367188 29.546875 C 5.402344 29.886719 4.71875 30.753906 4.613281 31.765625 C 4.65625 33.007812 5.695312 33.980469 6.941406 33.945312 L 23.277344 33.945312 C 24.523438 33.980469 25.566406 33.007812 25.605469 31.765625 C 25.5 30.753906 24.820312 29.890625 23.851562 29.546875 Z M 11.175781 5.222656 C 11.175781 3.058594 12.9375 1.304688 15.113281 1.304688 C 17.285156 1.304688 19.046875 3.058594 19.046875 5.222656 C 19.046875 7.386719 17.285156 9.140625 15.113281 9.140625 C 12.941406 9.136719 11.179688 7.382812 11.175781 5.222656 Z M 13.097656 10.042969 C 14.386719 10.578125 15.839844 10.578125 17.128906 10.042969 L 17.484375 11.097656 L 12.742188 11.097656 Z M 11.175781 12.75 L 11.175781 12.40625 L 19.046875 12.40625 L 19.046875 12.75 C 18.5625 13.21875 17.738281 14.394531 17.738281 16.976562 C 17.707031 18.640625 18.277344 20.261719 19.339844 21.546875 L 10.886719 21.546875 C 11.949219 20.261719 12.519531 18.640625 12.488281 16.976562 C 12.488281 14.394531 11.664062 13.21875 11.175781 12.75 Z M 20.363281 22.847656 L 20.363281 23.503906 L 9.863281 23.503906 L 9.863281 22.847656 Z M 8.054688 26.085938 C 8.726562 25.835938 9.300781 25.390625 9.710938 24.808594 L 20.519531 24.808594 C 20.925781 25.382812 21.496094 25.824219 22.160156 26.074219 C 23.054688 26.527344 23.640625 26.867188 23.640625 27.421875 C 23.640625 28.082031 23.476562 28.203125 23.179688 28.421875 C 22.828125 28.648438 22.558594 28.984375 22.421875 29.382812 L 7.800781 29.382812 C 7.664062 28.984375 7.398438 28.648438 7.042969 28.421875 C 6.746094 28.203125 6.585938 28.082031 6.585938 27.421875 C 6.585938 26.871094 7.167969 26.535156 8.054688 26.089844 Z M 23.28125 32.640625 L 6.945312 32.640625 C 6.425781 32.671875 5.976562 32.285156 5.925781 31.769531 C 6.089844 31.167969 6.617188 30.730469 7.238281 30.683594 L 22.984375 30.683594 C 23.609375 30.730469 24.136719 31.167969 24.296875 31.769531 C 24.246094 32.285156 23.796875 32.671875 23.277344 32.640625 Z M 23.28125 32.640625 "/>
</g>
</svg>
