<svg xmlns="http://www.w3.org/2000/svg" xmlns:xlink="http://www.w3.org/1999/xlink" width="126" height="126" viewBox="0 0 126 126">
  <defs>
    <clipPath id="clip-Training">
      <rect width="126" height="126"/>
    </clipPath>
  </defs>
  <g id="Training" clip-path="url(#clip-Training)">
    <g id="noun-training-3317573" transform="translate(-80.308 -39.701)">
      <path id="Path_107" data-name="Path 107" d="M135.687,173.464c11.327,0,16.682-15.24,16.682-25.537,0-10.709-5.972-16.682-16.682-16.682s-16.682,5.972-16.682,16.682C119.005,158.224,124.36,173.464,135.687,173.464Zm0-38.1c7.826,0,11.739,3.3,12.357,10.3l-8.856-3.707a7.678,7.678,0,0,0-8.444,1.854c-1.854,1.648-5.149.412-7.208-.618C124.977,137.834,128.89,135.363,135.687,135.363Zm-12.563,12.151c2.883,1.236,7.208,2.265,10.5-.618a3.593,3.593,0,0,1,4.119-1.03l10.3,4.325c-.618,8.444-4.943,19.153-12.357,19.153-8.032,0-12.563-12.563-12.563-21.418Z" transform="translate(-28.108 -63.556)" fill="#fff" stroke="#fff" stroke-width="0.5"/>
      <path id="Path_108" data-name="Path 108" d="M204.371,48.125H84.922v81.143a26.91,26.91,0,0,0-2.677,11.327v16.682h50.663V143.684l4.119,1.648a6.463,6.463,0,0,0,7.826-2.059L150,136.888h54.37ZM141.556,140.8a2.547,2.547,0,0,1-2.883.824l-9.885-4.119v15.652H86.363V140.595a21.176,21.176,0,0,1,6.178-15.034,21.539,21.539,0,0,1,15.034-6.178,20.567,20.567,0,0,1,11.533,3.5l15.446,6.59a6.908,6.908,0,0,0,8.238-1.648L153.5,115.263a3.226,3.226,0,0,1,4.325-.618,3.915,3.915,0,0,1,1.442,2.265,2.948,2.948,0,0,1-.618,2.265Zm58.7-8.032H153.089l8.65-11.121a6.61,6.61,0,0,0,1.442-5.561,6.03,6.03,0,0,0-1.442-3.3l16.888-22.654-3.3-2.471-16.888,22.654a7.807,7.807,0,0,0-8.238,2.059L139.5,124.943a2.636,2.636,0,0,1-3.5.618L122.4,119.794l-1.442-.618a25.2,25.2,0,0,0-13.8-4.119,25.6,25.6,0,0,0-17.917,7.414l-.618.618V52.244H199.839v80.524Z" fill="#fff" stroke="#fff" stroke-width="0.5"/>
      <path id="Path_109" data-name="Path 109" d="M118.107,95.289,102.974,80.156l3.424-3.424,11.709,11.709,30.529-30.529,3.424,3.424Z" transform="translate(29.456 13.908)" fill="#fff" stroke="#fff" stroke-width="0.5"/>
    </g>
  </g>
</svg>
